<svg id="ab7731d1-0fcf-40d0-a22e-d9bea4c374fe" data-name="Capa 1" xmlns="http://www.w3.org/2000/svg" viewBox="0 0 266 80"><defs><style>.a7ae02b0-1d47-4978-bdc2-63563dcff0c8{fill:#00f8e3;}.f0f60672-1f3d-4583-a844-59636f03950a{fill:#fff;}</style></defs><title>AF</title><path class="a7ae02b0-1d47-4978-bdc2-63563dcff0c8" d="M77.11,26a33.54,33.54,0,0,0-65.82,3.19,30.6,30.6,0,0,0-.35,4.17c.08.09.13.3.24.31s.2-.19.3-.28a30.65,30.65,0,0,1,.72-3C15,19.94,24.52,8.74,35.79,6c16.51-4,32.63,6.69,36.64,23.2C75.07,40,70.83,52.66,63.54,60c-.69.7-1.42,1.37-2.17,2-.08.21-.21.46-.12.58s.42.14.75.1a31.64,31.64,0,0,0,3-2.2A33.55,33.55,0,0,0,77.11,26Z"/><path class="a7ae02b0-1d47-4978-bdc2-63563dcff0c8" d="M81,38.42c-.13,0-.26.21-.38.36-.15.95-.43,1.87-.64,2.8-2.89,12.79-12.39,25.5-25.89,29.3C34.46,76.4,13.83,67,8.32,47.37,4.75,34.73,8.5,18,16.68,8.85a38.4,38.4,0,0,1,3.16-3.09c0-.22.22-.5.11-.64S19.42,5,19.08,5A41,41,0,0,0,14.92,8.3,40.26,40.26,0,1,0,81.11,42.69c.14-1.28.22-2.56.24-3.85C81.24,38.68,81.13,38.42,81,38.42Z"/><path class="a7ae02b0-1d47-4978-bdc2-63563dcff0c8" d="M67.3,37.4c-.09-.13-.16-.36-.28-.37s-.31.23-.47.42a24.1,24.1,0,0,1-.41,3.68A24.58,24.58,0,1,1,21.2,23.38a29.2,29.2,0,0,1,2-2.75c0-.18.1-.42,0-.51s-.36,0-.59.06A26.22,26.22,0,0,0,20.05,23,26.85,26.85,0,1,0,67.39,41,23.39,23.39,0,0,0,67.3,37.4Z"/><path class="f0f60672-1f3d-4583-a844-59636f03950a" d="M104.17,24.08V37.39h18.15v6H104.17V61.8H97.55V18.13h27.9v5.95Z"/><path class="f0f60672-1f3d-4583-a844-59636f03950a" d="M133.42,61.8V18.13h6.63V55.85h21V61.8Z"/><path class="f0f60672-1f3d-4583-a844-59636f03950a" d="M168.63,61.8V18.13h6.63V61.8Z"/><path class="f0f60672-1f3d-4583-a844-59636f03950a" d="M213.47,61.8,193.29,31.08V61.8h-6.63V18.13h6.08L212.92,48.8V18.13h6.62V61.8Z"/><path class="f0f60672-1f3d-4583-a844-59636f03950a" d="M257.2,61.8,244.94,40.29l-7.36,8.82v12.7H231V18.13h6.62v22l17.85-22h8.1L249.34,35.25,265,61.8Z"/></svg>